# xmcd CD database file
#
# Track frame offsets:
#	150
#	9187
#	30783
#	46797
#	63783
#	85034
#	108226
#	129083
#	142291
#	158076
#	177178
#	205137
#
# Disc length: 3035 seconds
#
# Revision: 11
# Processed by: cddbd v1.5.1PL2 Copyright (c) Steve Scherf et al.
# Submitted via: CDex 1.60beta1
#
DISCID=840bd90c
DTITLE=ASIAN KUNG-FU GENERATION - 君繋ファイブエム
DYEAR=2003
DGENRE=Rock
TTITLE0=フラッシュバック
TTITLE1=未来の破片
TTITLE2=電波塔
TTITLE3=アンダースタンド
TTITLE4=夏の日、残像
TTITLE5=無限グライダー
TTITLE6=その訳を
TTITLE7=N.G.S
TTITLE8=自閉探索
TTITLE9=E
TTITLE10=君という花
TTITLE11=ノーネーム
EXTD=YEAR: 2003
EXTT0=
EXTT1=
EXTT2=
EXTT3=
EXTT4=
EXTT5=
EXTT6=
EXTT7=
EXTT8=
EXTT9=
EXTT10=
EXTT11=
PLAYORDER=
